# xmcd CD database file
#
# Track frame offsets:
#	150
#	18352
#	32194
#	45767
#	74560
#	91156
#	103846
#	115409
#	129285
#	158249
#	174991
#	186162
#	193969
#	206953
#	238986
#	260460
#	276398
#	309432
#
# Disc length: 4318 seconds
#
# Revision: 1
# Processed by: cddbd v1.5.2PL0 Copyright (c) Steve Scherf et al.
# Submitted via: CDex 1.50
#
DISCID=0710dc12
DTITLE=JAZZ GREATS, THE ESSENTIAL MASTERPIECES/ TRILOGY - CD 1
DYEAR=2006
DGENRE=Jazz
TTITLE0=I LOVES YOU, PORGY - Nina Simone
TTITLE1=THE MAN I LOVE - Billie Holiday
TTITLE2=MISTY - Sarah Vaughan
TTITLE3=DEEP IN A DREAM - Chet Baker
TTITLE4=EMBRACEABLE YOU - Miles Davis and Charlie Parker
TTITLE5=STARS FELL ON ALABAMA - Kay Starr
TTITLE6=NIGHT and DAY - Lena Horne
TTITLE7=DREAM A LITTLE DREAM OF ME - Ella Fitzgerald and Luis Armstrong
TTITLE8=MY FOOLISH HEART - Carmen McRae
TTITLE9=SOMEONE TO WATCH OVER ME - Ella Fitzgerald
TTITLE10=OUR LOVE IS HERE TO STAY - Dinah Washington
TTITLE11=LOVE OR LEAVE ME - Mel Torme
TTITLE12=SUMMERTIME - Count Basie
TTITLE13=AUTUMN LEAVES - Stan Getz
TTITLE14=STARDUST - Lester Young
TTITLE15=ROUND MIDNIGHT - Art Pepper
TTITLE16=BODY AND SOUL - Wes Montgomery
TTITLE17=BEGUIN THE BERGUINE - Artie Shaw
EXTD=YEAR: 2006
EXTT0=
EXTT1=
EXTT2=
EXTT3=
EXTT4=
EXTT5=
EXTT6=
EXTT7=
EXTT8=
EXTT9=
EXTT10=
EXTT11=
EXTT12=
EXTT13=
EXTT14=
EXTT15=
EXTT16=
EXTT17=
PLAYORDER=
